<mxfile host="Electron" agent="Mozilla/5.0 (Windows NT 10.0; Win64; x64) AppleWebKit/537.36 (KHTML, like Gecko) draw.io/26.0.16 Chrome/132.0.6834.196 Electron/34.2.0 Safari/537.36" version="26.0.16">
  <diagram name="Page-1" id="Vk0b5H3L1SESiMLQ1a4l">
    <mxGraphModel dx="3187" dy="2127" grid="1" gridSize="10" guides="1" tooltips="1" connect="1" arrows="1" fold="1" page="1" pageScale="1" pageWidth="3300" pageHeight="4681" math="0" shadow="0">
      <root>
        <mxCell id="0" />
        <mxCell id="1" parent="0" />
        <mxCell id="z4m7dzDND1Zy9vnOMDJ4-134" value="" style="endArrow=classic;html=1;rounded=0;" parent="1" edge="1">
          <mxGeometry width="50" height="50" relative="1" as="geometry">
            <mxPoint x="904.58" y="780" as="sourcePoint" />
            <mxPoint x="905" y="360" as="targetPoint" />
          </mxGeometry>
        </mxCell>
        <mxCell id="8MUEx2jzXtJNU1HR3N2--1" value="" style="endArrow=classic;html=1;rounded=0;" parent="1" edge="1">
          <mxGeometry width="50" height="50" relative="1" as="geometry">
            <mxPoint x="200" y="360" as="sourcePoint" />
            <mxPoint x="1520" y="360" as="targetPoint" />
          </mxGeometry>
        </mxCell>
        <mxCell id="8MUEx2jzXtJNU1HR3N2--2" value="" style="endArrow=classic;html=1;rounded=0;" parent="1" edge="1">
          <mxGeometry width="50" height="50" relative="1" as="geometry">
            <mxPoint x="200" y="520" as="sourcePoint" />
            <mxPoint x="1520" y="520" as="targetPoint" />
          </mxGeometry>
        </mxCell>
        <mxCell id="8MUEx2jzXtJNU1HR3N2--3" value="" style="endArrow=classic;html=1;rounded=0;" parent="1" edge="1">
          <mxGeometry width="50" height="50" relative="1" as="geometry">
            <mxPoint x="200" y="680" as="sourcePoint" />
            <mxPoint x="1520" y="680" as="targetPoint" />
          </mxGeometry>
        </mxCell>
        <mxCell id="z4m7dzDND1Zy9vnOMDJ4-1" value="" style="endArrow=classic;html=1;rounded=0;" parent="1" edge="1">
          <mxGeometry width="50" height="50" relative="1" as="geometry">
            <mxPoint x="200" y="840" as="sourcePoint" />
            <mxPoint x="1520" y="840" as="targetPoint" />
          </mxGeometry>
        </mxCell>
        <mxCell id="z4m7dzDND1Zy9vnOMDJ4-2" value="" style="html=1;verticalLabelPosition=bottom;labelBackgroundColor=#ffffff;verticalAlign=top;shadow=0;dashed=0;strokeWidth=1;shape=mxgraph.ios7.misc.iphone;" parent="1" vertex="1">
          <mxGeometry x="140" y="440" width="40" height="70" as="geometry" />
        </mxCell>
        <mxCell id="z4m7dzDND1Zy9vnOMDJ4-5" value="" style="html=1;verticalLabelPosition=bottom;labelBackgroundColor=#ffffff;verticalAlign=top;shadow=0;dashed=0;strokeWidth=1;shape=mxgraph.ios7.misc.iphone;" parent="1" vertex="1">
          <mxGeometry x="140" y="600" width="40" height="70" as="geometry" />
        </mxCell>
        <mxCell id="z4m7dzDND1Zy9vnOMDJ4-6" value="" style="html=1;verticalLabelPosition=bottom;labelBackgroundColor=#ffffff;verticalAlign=top;shadow=0;dashed=0;strokeWidth=1;shape=mxgraph.ios7.misc.iphone;" parent="1" vertex="1">
          <mxGeometry x="140" y="760" width="40" height="70" as="geometry" />
        </mxCell>
        <mxCell id="z4m7dzDND1Zy9vnOMDJ4-56" value="" style="group" parent="1" vertex="1" connectable="0">
          <mxGeometry x="126.88" y="250" width="66.25" height="100" as="geometry" />
        </mxCell>
        <mxCell id="z4m7dzDND1Zy9vnOMDJ4-57" value="" style="endArrow=none;html=1;rounded=0;" parent="z4m7dzDND1Zy9vnOMDJ4-56" edge="1">
          <mxGeometry width="50" height="50" relative="1" as="geometry">
            <mxPoint y="75.99999999999999" as="sourcePoint" />
            <mxPoint x="33.125" y="60" as="targetPoint" />
          </mxGeometry>
        </mxCell>
        <mxCell id="z4m7dzDND1Zy9vnOMDJ4-58" value="" style="endArrow=none;html=1;rounded=0;" parent="z4m7dzDND1Zy9vnOMDJ4-56" edge="1">
          <mxGeometry width="50" height="50" relative="1" as="geometry">
            <mxPoint x="33.125" y="83.99999999999997" as="sourcePoint" />
            <mxPoint x="66.25" y="68" as="targetPoint" />
          </mxGeometry>
        </mxCell>
        <mxCell id="z4m7dzDND1Zy9vnOMDJ4-59" value="" style="endArrow=none;html=1;rounded=0;" parent="z4m7dzDND1Zy9vnOMDJ4-56" edge="1">
          <mxGeometry width="50" height="50" relative="1" as="geometry">
            <mxPoint x="33.125" y="60" as="sourcePoint" />
            <mxPoint x="66.25" y="68" as="targetPoint" />
          </mxGeometry>
        </mxCell>
        <mxCell id="z4m7dzDND1Zy9vnOMDJ4-60" value="" style="endArrow=none;html=1;rounded=0;" parent="z4m7dzDND1Zy9vnOMDJ4-56" edge="1">
          <mxGeometry width="50" height="50" relative="1" as="geometry">
            <mxPoint y="75.99999999999999" as="sourcePoint" />
            <mxPoint x="33.125" y="83.99999999999997" as="targetPoint" />
          </mxGeometry>
        </mxCell>
        <mxCell id="z4m7dzDND1Zy9vnOMDJ4-61" value="" style="endArrow=none;html=1;rounded=0;" parent="z4m7dzDND1Zy9vnOMDJ4-56" edge="1">
          <mxGeometry width="50" height="50" relative="1" as="geometry">
            <mxPoint x="33.125" y="83.99999999999997" as="sourcePoint" />
            <mxPoint x="33.125" y="100" as="targetPoint" />
          </mxGeometry>
        </mxCell>
        <mxCell id="z4m7dzDND1Zy9vnOMDJ4-62" value="" style="endArrow=none;html=1;rounded=0;" parent="z4m7dzDND1Zy9vnOMDJ4-56" edge="1">
          <mxGeometry width="50" height="50" relative="1" as="geometry">
            <mxPoint y="75.99999999999999" as="sourcePoint" />
            <mxPoint y="91.99999999999999" as="targetPoint" />
          </mxGeometry>
        </mxCell>
        <mxCell id="z4m7dzDND1Zy9vnOMDJ4-63" value="" style="endArrow=none;html=1;rounded=0;" parent="z4m7dzDND1Zy9vnOMDJ4-56" edge="1">
          <mxGeometry width="50" height="50" relative="1" as="geometry">
            <mxPoint y="91.99999999999999" as="sourcePoint" />
            <mxPoint x="33.125" y="100" as="targetPoint" />
          </mxGeometry>
        </mxCell>
        <mxCell id="z4m7dzDND1Zy9vnOMDJ4-64" value="" style="endArrow=none;html=1;rounded=0;" parent="z4m7dzDND1Zy9vnOMDJ4-56" edge="1">
          <mxGeometry width="50" height="50" relative="1" as="geometry">
            <mxPoint x="33.125" y="100" as="sourcePoint" />
            <mxPoint x="66.25" y="83.99999999999997" as="targetPoint" />
          </mxGeometry>
        </mxCell>
        <mxCell id="z4m7dzDND1Zy9vnOMDJ4-65" value="" style="endArrow=none;html=1;rounded=0;" parent="z4m7dzDND1Zy9vnOMDJ4-56" edge="1">
          <mxGeometry width="50" height="50" relative="1" as="geometry">
            <mxPoint x="66.25" y="68" as="sourcePoint" />
            <mxPoint x="66.25" y="83.99999999999997" as="targetPoint" />
          </mxGeometry>
        </mxCell>
        <mxCell id="z4m7dzDND1Zy9vnOMDJ4-66" value="" style="endArrow=none;html=1;rounded=0;" parent="z4m7dzDND1Zy9vnOMDJ4-56" edge="1">
          <mxGeometry width="50" height="50" relative="1" as="geometry">
            <mxPoint x="33.125" y="71.99999999999999" as="sourcePoint" />
            <mxPoint x="33.125" y="40" as="targetPoint" />
          </mxGeometry>
        </mxCell>
        <mxCell id="z4m7dzDND1Zy9vnOMDJ4-67" value="" style="endArrow=none;html=1;rounded=0;" parent="z4m7dzDND1Zy9vnOMDJ4-56" edge="1">
          <mxGeometry width="50" height="50" relative="1" as="geometry">
            <mxPoint x="16.5625" y="71.99999999999999" as="sourcePoint" />
            <mxPoint x="33.125" y="63.99999999999998" as="targetPoint" />
          </mxGeometry>
        </mxCell>
        <mxCell id="z4m7dzDND1Zy9vnOMDJ4-68" value="" style="endArrow=none;html=1;rounded=0;" parent="z4m7dzDND1Zy9vnOMDJ4-56" edge="1">
          <mxGeometry width="50" height="50" relative="1" as="geometry">
            <mxPoint x="33.125" y="63.99999999999998" as="sourcePoint" />
            <mxPoint x="49.68749999999999" y="68" as="targetPoint" />
          </mxGeometry>
        </mxCell>
        <mxCell id="z4m7dzDND1Zy9vnOMDJ4-69" value="" style="endArrow=none;html=1;rounded=0;" parent="z4m7dzDND1Zy9vnOMDJ4-56" edge="1">
          <mxGeometry width="50" height="50" relative="1" as="geometry">
            <mxPoint x="33.125" y="75.99999999999999" as="sourcePoint" />
            <mxPoint x="49.68749999999999" y="68" as="targetPoint" />
          </mxGeometry>
        </mxCell>
        <mxCell id="z4m7dzDND1Zy9vnOMDJ4-70" value="" style="endArrow=none;html=1;rounded=0;" parent="z4m7dzDND1Zy9vnOMDJ4-56" edge="1">
          <mxGeometry width="50" height="50" relative="1" as="geometry">
            <mxPoint x="16.5625" y="71.99999999999999" as="sourcePoint" />
            <mxPoint x="33.125" y="75.99999999999999" as="targetPoint" />
          </mxGeometry>
        </mxCell>
        <mxCell id="z4m7dzDND1Zy9vnOMDJ4-71" value="" style="endArrow=none;html=1;rounded=0;" parent="z4m7dzDND1Zy9vnOMDJ4-56" edge="1">
          <mxGeometry width="50" height="50" relative="1" as="geometry">
            <mxPoint x="33.125" y="80" as="sourcePoint" />
            <mxPoint x="33.125" y="75.99999999999999" as="targetPoint" />
          </mxGeometry>
        </mxCell>
        <mxCell id="z4m7dzDND1Zy9vnOMDJ4-72" value="" style="endArrow=none;html=1;rounded=0;" parent="z4m7dzDND1Zy9vnOMDJ4-56" edge="1">
          <mxGeometry width="50" height="50" relative="1" as="geometry">
            <mxPoint x="16.5625" y="71.99999999999999" as="sourcePoint" />
            <mxPoint x="16.5625" y="75.99999999999999" as="targetPoint" />
          </mxGeometry>
        </mxCell>
        <mxCell id="z4m7dzDND1Zy9vnOMDJ4-73" value="" style="endArrow=none;html=1;rounded=0;" parent="z4m7dzDND1Zy9vnOMDJ4-56" edge="1">
          <mxGeometry width="50" height="50" relative="1" as="geometry">
            <mxPoint x="49.68749999999999" y="68" as="sourcePoint" />
            <mxPoint x="49.68749999999999" y="71.99999999999999" as="targetPoint" />
          </mxGeometry>
        </mxCell>
        <mxCell id="z4m7dzDND1Zy9vnOMDJ4-74" value="" style="endArrow=none;html=1;rounded=0;" parent="z4m7dzDND1Zy9vnOMDJ4-56" edge="1">
          <mxGeometry width="50" height="50" relative="1" as="geometry">
            <mxPoint x="33.125" y="80" as="sourcePoint" />
            <mxPoint x="49.68749999999999" y="71.99999999999999" as="targetPoint" />
          </mxGeometry>
        </mxCell>
        <mxCell id="z4m7dzDND1Zy9vnOMDJ4-75" value="" style="endArrow=none;html=1;rounded=0;" parent="z4m7dzDND1Zy9vnOMDJ4-56" edge="1">
          <mxGeometry width="50" height="50" relative="1" as="geometry">
            <mxPoint x="16.5625" y="75.99999999999999" as="sourcePoint" />
            <mxPoint x="33.125" y="80" as="targetPoint" />
          </mxGeometry>
        </mxCell>
        <mxCell id="z4m7dzDND1Zy9vnOMDJ4-76" value="" style="shape=cylinder3;whiteSpace=wrap;html=1;boundedLbl=1;backgroundOutline=1;size=3.3333333333333997;" parent="z4m7dzDND1Zy9vnOMDJ4-56" vertex="1">
          <mxGeometry x="49.68749999999999" width="4.140625" height="31.99999999999999" as="geometry" />
        </mxCell>
        <mxCell id="z4m7dzDND1Zy9vnOMDJ4-77" value="" style="endArrow=none;html=1;rounded=0;" parent="z4m7dzDND1Zy9vnOMDJ4-56" edge="1">
          <mxGeometry width="50" height="50" relative="1" as="geometry">
            <mxPoint x="16.5625" y="47.99999999999999" as="sourcePoint" />
            <mxPoint x="49.68749999999999" y="31.99999999999999" as="targetPoint" />
          </mxGeometry>
        </mxCell>
        <mxCell id="z4m7dzDND1Zy9vnOMDJ4-78" value="" style="shape=cylinder3;whiteSpace=wrap;html=1;boundedLbl=1;backgroundOutline=1;size=3.3333333333333997;" parent="z4m7dzDND1Zy9vnOMDJ4-56" vertex="1">
          <mxGeometry x="31.0546875" y="7.999999999999997" width="4.140625" height="31.99999999999999" as="geometry" />
        </mxCell>
        <mxCell id="z4m7dzDND1Zy9vnOMDJ4-79" value="" style="shape=cylinder3;whiteSpace=wrap;html=1;boundedLbl=1;backgroundOutline=1;size=3.3333333333333997;" parent="z4m7dzDND1Zy9vnOMDJ4-56" vertex="1">
          <mxGeometry x="12.835937499999998" y="15.999999999999995" width="4.140625" height="31.99999999999999" as="geometry" />
        </mxCell>
        <mxCell id="z4m7dzDND1Zy9vnOMDJ4-80" value="" style="shape=parallelogram;perimeter=parallelogramPerimeter;whiteSpace=wrap;html=1;fixedSize=1;fillColor=#4299E1;size=20;" parent="1" vertex="1">
          <mxGeometry x="240" y="300" width="120" height="60" as="geometry" />
        </mxCell>
        <mxCell id="z4m7dzDND1Zy9vnOMDJ4-81" value="" style="shape=parallelogram;perimeter=parallelogramPerimeter;whiteSpace=wrap;html=1;fixedSize=1;fillColor=#4299E1;size=20;" parent="1" vertex="1">
          <mxGeometry x="240" y="460" width="120" height="60" as="geometry" />
        </mxCell>
        <mxCell id="z4m7dzDND1Zy9vnOMDJ4-82" value="" style="shape=parallelogram;perimeter=parallelogramPerimeter;whiteSpace=wrap;html=1;fixedSize=1;fillColor=#4299E1;size=20;" parent="1" vertex="1">
          <mxGeometry x="240" y="620" width="120" height="60" as="geometry" />
        </mxCell>
        <mxCell id="z4m7dzDND1Zy9vnOMDJ4-83" value="" style="shape=parallelogram;perimeter=parallelogramPerimeter;whiteSpace=wrap;html=1;fixedSize=1;fillColor=#4299E1;size=20;" parent="1" vertex="1">
          <mxGeometry x="240" y="780" width="120" height="60" as="geometry" />
        </mxCell>
        <mxCell id="z4m7dzDND1Zy9vnOMDJ4-88" value="" style="endArrow=classic;html=1;rounded=0;exitX=1;exitY=0.5;exitDx=0;exitDy=0;" parent="1" source="z4m7dzDND1Zy9vnOMDJ4-80" edge="1">
          <mxGeometry width="50" height="50" relative="1" as="geometry">
            <mxPoint x="380" y="355" as="sourcePoint" />
            <mxPoint x="440" y="330" as="targetPoint" />
          </mxGeometry>
        </mxCell>
        <mxCell id="z4m7dzDND1Zy9vnOMDJ4-89" value="" style="endArrow=classic;html=1;rounded=0;exitX=1;exitY=0.5;exitDx=0;exitDy=0;" parent="1" edge="1">
          <mxGeometry width="50" height="50" relative="1" as="geometry">
            <mxPoint x="350" y="489.84000000000003" as="sourcePoint" />
            <mxPoint x="440" y="489.84000000000003" as="targetPoint" />
          </mxGeometry>
        </mxCell>
        <mxCell id="z4m7dzDND1Zy9vnOMDJ4-90" value="" style="endArrow=classic;html=1;rounded=0;exitX=1;exitY=0.5;exitDx=0;exitDy=0;" parent="1" edge="1">
          <mxGeometry width="50" height="50" relative="1" as="geometry">
            <mxPoint x="350" y="649.84" as="sourcePoint" />
            <mxPoint x="440" y="649.84" as="targetPoint" />
          </mxGeometry>
        </mxCell>
        <mxCell id="z4m7dzDND1Zy9vnOMDJ4-91" value="" style="endArrow=classic;html=1;rounded=0;exitX=1;exitY=0.5;exitDx=0;exitDy=0;" parent="1" edge="1">
          <mxGeometry width="50" height="50" relative="1" as="geometry">
            <mxPoint x="350" y="809.84" as="sourcePoint" />
            <mxPoint x="440" y="809.84" as="targetPoint" />
          </mxGeometry>
        </mxCell>
        <mxCell id="z4m7dzDND1Zy9vnOMDJ4-93" value="" style="endArrow=none;dashed=1;html=1;rounded=0;strokeWidth=1;" parent="1" edge="1">
          <mxGeometry width="50" height="50" relative="1" as="geometry">
            <mxPoint x="440" y="880" as="sourcePoint" />
            <mxPoint x="440" y="280" as="targetPoint" />
          </mxGeometry>
        </mxCell>
        <mxCell id="z4m7dzDND1Zy9vnOMDJ4-94" value="" style="shape=parallelogram;perimeter=parallelogramPerimeter;whiteSpace=wrap;html=1;fixedSize=1;fillColor=#4299E1;size=20;" parent="1" vertex="1">
          <mxGeometry x="440" y="460" width="40" height="60" as="geometry" />
        </mxCell>
        <mxCell id="z4m7dzDND1Zy9vnOMDJ4-95" value="" style="shape=parallelogram;perimeter=parallelogramPerimeter;whiteSpace=wrap;html=1;fixedSize=1;fillColor=#4299E1;size=20;" parent="1" vertex="1">
          <mxGeometry x="460" y="460" width="40" height="60" as="geometry" />
        </mxCell>
        <mxCell id="z4m7dzDND1Zy9vnOMDJ4-96" value="" style="shape=parallelogram;perimeter=parallelogramPerimeter;whiteSpace=wrap;html=1;fixedSize=1;fillColor=#4299E1;size=20;" parent="1" vertex="1">
          <mxGeometry x="440" y="620" width="40" height="60" as="geometry" />
        </mxCell>
        <mxCell id="z4m7dzDND1Zy9vnOMDJ4-97" value="" style="shape=parallelogram;perimeter=parallelogramPerimeter;whiteSpace=wrap;html=1;fixedSize=1;fillColor=#4299E1;size=20;" parent="1" vertex="1">
          <mxGeometry x="460" y="620" width="40" height="60" as="geometry" />
        </mxCell>
        <mxCell id="z4m7dzDND1Zy9vnOMDJ4-98" value="" style="shape=parallelogram;perimeter=parallelogramPerimeter;whiteSpace=wrap;html=1;fixedSize=1;fillColor=default;size=20;" parent="1" vertex="1">
          <mxGeometry x="480" y="620" width="40" height="60" as="geometry" />
        </mxCell>
        <mxCell id="z4m7dzDND1Zy9vnOMDJ4-99" value="" style="shape=parallelogram;perimeter=parallelogramPerimeter;whiteSpace=wrap;html=1;fixedSize=1;fillColor=default;size=20;" parent="1" vertex="1">
          <mxGeometry x="500" y="620" width="40" height="60" as="geometry" />
        </mxCell>
        <mxCell id="z4m7dzDND1Zy9vnOMDJ4-100" value="" style="shape=parallelogram;perimeter=parallelogramPerimeter;whiteSpace=wrap;html=1;fixedSize=1;fillColor=default;size=20;" parent="1" vertex="1">
          <mxGeometry x="520" y="620" width="40" height="60" as="geometry" />
        </mxCell>
        <mxCell id="z4m7dzDND1Zy9vnOMDJ4-101" value="" style="shape=parallelogram;perimeter=parallelogramPerimeter;whiteSpace=wrap;html=1;fixedSize=1;fillColor=default;size=20;" parent="1" vertex="1">
          <mxGeometry x="540" y="620" width="40" height="60" as="geometry" />
        </mxCell>
        <mxCell id="z4m7dzDND1Zy9vnOMDJ4-102" value="" style="shape=parallelogram;perimeter=parallelogramPerimeter;whiteSpace=wrap;html=1;fixedSize=1;fillColor=#4299E1;size=20;" parent="1" vertex="1">
          <mxGeometry x="440" y="780" width="40" height="60" as="geometry" />
        </mxCell>
        <mxCell id="z4m7dzDND1Zy9vnOMDJ4-103" value="" style="shape=parallelogram;perimeter=parallelogramPerimeter;whiteSpace=wrap;html=1;fixedSize=1;fillColor=#4299E1;size=20;" parent="1" vertex="1">
          <mxGeometry x="460" y="780" width="40" height="60" as="geometry" />
        </mxCell>
        <mxCell id="z4m7dzDND1Zy9vnOMDJ4-104" value="" style="shape=parallelogram;perimeter=parallelogramPerimeter;whiteSpace=wrap;html=1;fixedSize=1;fillColor=default;size=20;" parent="1" vertex="1">
          <mxGeometry x="480" y="780" width="40" height="60" as="geometry" />
        </mxCell>
        <mxCell id="z4m7dzDND1Zy9vnOMDJ4-105" value="" style="shape=parallelogram;perimeter=parallelogramPerimeter;whiteSpace=wrap;html=1;fixedSize=1;fillColor=default;size=20;" parent="1" vertex="1">
          <mxGeometry x="500" y="780" width="40" height="60" as="geometry" />
        </mxCell>
        <mxCell id="z4m7dzDND1Zy9vnOMDJ4-106" value="" style="shape=parallelogram;perimeter=parallelogramPerimeter;whiteSpace=wrap;html=1;fixedSize=1;fillColor=default;size=20;" parent="1" vertex="1">
          <mxGeometry x="520" y="780" width="40" height="60" as="geometry" />
        </mxCell>
        <mxCell id="z4m7dzDND1Zy9vnOMDJ4-108" value="" style="rounded=0;whiteSpace=wrap;html=1;fillColor=none;" parent="1" vertex="1">
          <mxGeometry x="500" y="460" width="90" height="60" as="geometry" />
        </mxCell>
        <mxCell id="z4m7dzDND1Zy9vnOMDJ4-109" value="" style="endArrow=classic;html=1;rounded=0;" parent="1" edge="1">
          <mxGeometry width="50" height="50" relative="1" as="geometry">
            <mxPoint x="544.71" y="460" as="sourcePoint" />
            <mxPoint x="544.71" y="360" as="targetPoint" />
          </mxGeometry>
        </mxCell>
        <mxCell id="z4m7dzDND1Zy9vnOMDJ4-110" value="" style="rounded=0;whiteSpace=wrap;html=1;fillColor=none;dashed=1;" parent="1" vertex="1">
          <mxGeometry x="500" y="300" width="90" height="60" as="geometry" />
        </mxCell>
        <mxCell id="z4m7dzDND1Zy9vnOMDJ4-111" value="" style="endArrow=classic;html=1;rounded=0;" parent="1" edge="1">
          <mxGeometry width="50" height="50" relative="1" as="geometry">
            <mxPoint x="590" y="329.71" as="sourcePoint" />
            <mxPoint x="650" y="329.71" as="targetPoint" />
          </mxGeometry>
        </mxCell>
        <mxCell id="z4m7dzDND1Zy9vnOMDJ4-112" value="" style="rounded=0;whiteSpace=wrap;html=1;fillColor=none;" parent="1" vertex="1">
          <mxGeometry x="650" y="300" width="40" height="60" as="geometry" />
        </mxCell>
        <mxCell id="z4m7dzDND1Zy9vnOMDJ4-113" value="" style="endArrow=classic;html=1;rounded=0;exitX=1;exitY=0.5;exitDx=0;exitDy=0;" parent="1" edge="1">
          <mxGeometry width="50" height="50" relative="1" as="geometry">
            <mxPoint x="690" y="329.71" as="sourcePoint" />
            <mxPoint x="780" y="329.71" as="targetPoint" />
          </mxGeometry>
        </mxCell>
        <mxCell id="z4m7dzDND1Zy9vnOMDJ4-114" value="" style="endArrow=classic;html=1;rounded=0;exitX=0.5;exitY=1;exitDx=0;exitDy=0;entryX=0.5;entryY=0;entryDx=0;entryDy=0;" parent="1" target="z4m7dzDND1Zy9vnOMDJ4-115" edge="1">
          <mxGeometry width="50" height="50" relative="1" as="geometry">
            <mxPoint x="670" y="360" as="sourcePoint" />
            <mxPoint x="700" y="460" as="targetPoint" />
          </mxGeometry>
        </mxCell>
        <mxCell id="z4m7dzDND1Zy9vnOMDJ4-115" value="" style="rounded=0;whiteSpace=wrap;html=1;fillColor=none;dashed=1;" parent="1" vertex="1">
          <mxGeometry x="650" y="460" width="40" height="60" as="geometry" />
        </mxCell>
        <mxCell id="z4m7dzDND1Zy9vnOMDJ4-116" value="" style="endArrow=classic;html=1;rounded=0;exitX=1;exitY=0.5;exitDx=0;exitDy=0;" parent="1" edge="1">
          <mxGeometry width="50" height="50" relative="1" as="geometry">
            <mxPoint x="690" y="489.71" as="sourcePoint" />
            <mxPoint x="780" y="489.71" as="targetPoint" />
          </mxGeometry>
        </mxCell>
        <mxCell id="z4m7dzDND1Zy9vnOMDJ4-117" value="" style="endArrow=none;dashed=1;html=1;rounded=0;strokeWidth=1;" parent="1" edge="1">
          <mxGeometry width="50" height="50" relative="1" as="geometry">
            <mxPoint x="780" y="880" as="sourcePoint" />
            <mxPoint x="780" y="280" as="targetPoint" />
          </mxGeometry>
        </mxCell>
        <mxCell id="z4m7dzDND1Zy9vnOMDJ4-120" value="" style="shape=parallelogram;perimeter=parallelogramPerimeter;whiteSpace=wrap;html=1;fixedSize=1;fillColor=#4299E1;size=20;" parent="1" vertex="1">
          <mxGeometry x="780" y="780" width="40" height="60" as="geometry" />
        </mxCell>
        <mxCell id="z4m7dzDND1Zy9vnOMDJ4-121" value="" style="shape=parallelogram;perimeter=parallelogramPerimeter;whiteSpace=wrap;html=1;fixedSize=1;fillColor=#4299E1;size=20;" parent="1" vertex="1">
          <mxGeometry x="800" y="780" width="40" height="60" as="geometry" />
        </mxCell>
        <mxCell id="z4m7dzDND1Zy9vnOMDJ4-122" value="" style="shape=parallelogram;perimeter=parallelogramPerimeter;whiteSpace=wrap;html=1;fixedSize=1;fillColor=#4299E1;size=20;" parent="1" vertex="1">
          <mxGeometry x="820" y="780" width="40" height="60" as="geometry" />
        </mxCell>
        <mxCell id="z4m7dzDND1Zy9vnOMDJ4-123" value="" style="shape=parallelogram;perimeter=parallelogramPerimeter;whiteSpace=wrap;html=1;fixedSize=1;fillColor=#4299E1;size=20;" parent="1" vertex="1">
          <mxGeometry x="780" y="620" width="40" height="60" as="geometry" />
        </mxCell>
        <mxCell id="z4m7dzDND1Zy9vnOMDJ4-124" value="" style="shape=parallelogram;perimeter=parallelogramPerimeter;whiteSpace=wrap;html=1;fixedSize=1;fillColor=#4299E1;size=20;" parent="1" vertex="1">
          <mxGeometry x="800" y="620" width="40" height="60" as="geometry" />
        </mxCell>
        <mxCell id="z4m7dzDND1Zy9vnOMDJ4-125" value="" style="shape=parallelogram;perimeter=parallelogramPerimeter;whiteSpace=wrap;html=1;fixedSize=1;fillColor=#4299E1;size=20;" parent="1" vertex="1">
          <mxGeometry x="820" y="620" width="40" height="60" as="geometry" />
        </mxCell>
        <mxCell id="z4m7dzDND1Zy9vnOMDJ4-126" value="" style="shape=parallelogram;perimeter=parallelogramPerimeter;whiteSpace=wrap;html=1;fixedSize=1;fillColor=default;size=20;" parent="1" vertex="1">
          <mxGeometry x="840" y="620" width="40" height="60" as="geometry" />
        </mxCell>
        <mxCell id="z4m7dzDND1Zy9vnOMDJ4-127" value="" style="shape=parallelogram;perimeter=parallelogramPerimeter;whiteSpace=wrap;html=1;fixedSize=1;fillColor=#4299E1;size=20;" parent="1" vertex="1">
          <mxGeometry x="780" y="460" width="40" height="60" as="geometry" />
        </mxCell>
        <mxCell id="z4m7dzDND1Zy9vnOMDJ4-128" value="" style="shape=parallelogram;perimeter=parallelogramPerimeter;whiteSpace=wrap;html=1;fixedSize=1;fillColor=#4299E1;size=20;" parent="1" vertex="1">
          <mxGeometry x="800" y="460" width="40" height="60" as="geometry" />
        </mxCell>
        <mxCell id="z4m7dzDND1Zy9vnOMDJ4-129" value="" style="shape=parallelogram;perimeter=parallelogramPerimeter;whiteSpace=wrap;html=1;fixedSize=1;fillColor=#4299E1;size=20;" parent="1" vertex="1">
          <mxGeometry x="820" y="460" width="40" height="60" as="geometry" />
        </mxCell>
        <mxCell id="z4m7dzDND1Zy9vnOMDJ4-130" value="" style="shape=parallelogram;perimeter=parallelogramPerimeter;whiteSpace=wrap;html=1;fixedSize=1;fillColor=default;size=20;" parent="1" vertex="1">
          <mxGeometry x="840" y="460" width="40" height="60" as="geometry" />
        </mxCell>
        <mxCell id="z4m7dzDND1Zy9vnOMDJ4-131" value="" style="shape=parallelogram;perimeter=parallelogramPerimeter;whiteSpace=wrap;html=1;fixedSize=1;fillColor=default;size=20;" parent="1" vertex="1">
          <mxGeometry x="860" y="460" width="40" height="60" as="geometry" />
        </mxCell>
        <mxCell id="z4m7dzDND1Zy9vnOMDJ4-132" value="" style="shape=parallelogram;perimeter=parallelogramPerimeter;whiteSpace=wrap;html=1;fixedSize=1;fillColor=default;size=20;" parent="1" vertex="1">
          <mxGeometry x="880" y="460" width="40" height="60" as="geometry" />
        </mxCell>
        <mxCell id="z4m7dzDND1Zy9vnOMDJ4-133" value="" style="rounded=0;whiteSpace=wrap;html=1;fillColor=none;" parent="1" vertex="1">
          <mxGeometry x="860" y="780" width="90" height="60" as="geometry" />
        </mxCell>
        <mxCell id="z4m7dzDND1Zy9vnOMDJ4-135" value="" style="rounded=0;whiteSpace=wrap;html=1;fillColor=none;dashed=1;" parent="1" vertex="1">
          <mxGeometry x="860" y="300" width="90" height="60" as="geometry" />
        </mxCell>
        <mxCell id="z4m7dzDND1Zy9vnOMDJ4-137" value="" style="endArrow=classic;html=1;rounded=0;" parent="1" edge="1">
          <mxGeometry width="50" height="50" relative="1" as="geometry">
            <mxPoint x="950" y="329.71" as="sourcePoint" />
            <mxPoint x="1010" y="329.71" as="targetPoint" />
          </mxGeometry>
        </mxCell>
        <mxCell id="z4m7dzDND1Zy9vnOMDJ4-138" value="" style="rounded=0;whiteSpace=wrap;html=1;fillColor=none;" parent="1" vertex="1">
          <mxGeometry x="1010" y="300" width="40" height="60" as="geometry" />
        </mxCell>
        <mxCell id="z4m7dzDND1Zy9vnOMDJ4-139" value="" style="endArrow=classic;html=1;rounded=0;exitX=1;exitY=0.5;exitDx=0;exitDy=0;" parent="1" edge="1">
          <mxGeometry width="50" height="50" relative="1" as="geometry">
            <mxPoint x="1050" y="329.71" as="sourcePoint" />
            <mxPoint x="1140" y="329.71" as="targetPoint" />
          </mxGeometry>
        </mxCell>
        <mxCell id="z4m7dzDND1Zy9vnOMDJ4-140" value="" style="endArrow=classic;html=1;rounded=0;exitX=0.5;exitY=1;exitDx=0;exitDy=0;entryX=0.5;entryY=0;entryDx=0;entryDy=0;" parent="1" target="z4m7dzDND1Zy9vnOMDJ4-141" edge="1">
          <mxGeometry width="50" height="50" relative="1" as="geometry">
            <mxPoint x="1029.58" y="360" as="sourcePoint" />
            <mxPoint x="1029.58" y="460" as="targetPoint" />
          </mxGeometry>
        </mxCell>
        <mxCell id="z4m7dzDND1Zy9vnOMDJ4-141" value="" style="rounded=0;whiteSpace=wrap;html=1;fillColor=none;dashed=1;" parent="1" vertex="1">
          <mxGeometry x="1010" y="780" width="40" height="60" as="geometry" />
        </mxCell>
        <mxCell id="z4m7dzDND1Zy9vnOMDJ4-142" value="" style="endArrow=none;dashed=1;html=1;rounded=0;strokeWidth=1;" parent="1" edge="1">
          <mxGeometry width="50" height="50" relative="1" as="geometry">
            <mxPoint x="1140" y="880" as="sourcePoint" />
            <mxPoint x="1140" y="280" as="targetPoint" />
          </mxGeometry>
        </mxCell>
        <mxCell id="z4m7dzDND1Zy9vnOMDJ4-149" value="" style="shape=parallelogram;perimeter=parallelogramPerimeter;whiteSpace=wrap;html=1;fixedSize=1;fillColor=#4299E1;size=20;" parent="1" vertex="1">
          <mxGeometry x="1140" y="780" width="40" height="60" as="geometry" />
        </mxCell>
        <mxCell id="z4m7dzDND1Zy9vnOMDJ4-150" value="" style="shape=parallelogram;perimeter=parallelogramPerimeter;whiteSpace=wrap;html=1;fixedSize=1;fillColor=default;size=20;" parent="1" vertex="1">
          <mxGeometry x="1160" y="780" width="40" height="60" as="geometry" />
        </mxCell>
        <mxCell id="z4m7dzDND1Zy9vnOMDJ4-151" value="" style="shape=parallelogram;perimeter=parallelogramPerimeter;whiteSpace=wrap;html=1;fixedSize=1;fillColor=default;size=20;" parent="1" vertex="1">
          <mxGeometry x="1180" y="780" width="40" height="60" as="geometry" />
        </mxCell>
        <mxCell id="z4m7dzDND1Zy9vnOMDJ4-152" value="" style="shape=parallelogram;perimeter=parallelogramPerimeter;whiteSpace=wrap;html=1;fixedSize=1;fillColor=default;size=20;" parent="1" vertex="1">
          <mxGeometry x="1200" y="780" width="40" height="60" as="geometry" />
        </mxCell>
        <mxCell id="z4m7dzDND1Zy9vnOMDJ4-153" value="" style="shape=parallelogram;perimeter=parallelogramPerimeter;whiteSpace=wrap;html=1;fixedSize=1;fillColor=default;size=20;" parent="1" vertex="1">
          <mxGeometry x="1220" y="780" width="40" height="60" as="geometry" />
        </mxCell>
        <mxCell id="z4m7dzDND1Zy9vnOMDJ4-154" value="" style="shape=parallelogram;perimeter=parallelogramPerimeter;whiteSpace=wrap;html=1;fixedSize=1;fillColor=default;size=20;" parent="1" vertex="1">
          <mxGeometry x="1240" y="780" width="40" height="60" as="geometry" />
        </mxCell>
        <mxCell id="z4m7dzDND1Zy9vnOMDJ4-157" value="" style="shape=parallelogram;perimeter=parallelogramPerimeter;whiteSpace=wrap;html=1;fixedSize=1;fillColor=#4299E1;size=20;" parent="1" vertex="1">
          <mxGeometry x="1140" y="620" width="40" height="60" as="geometry" />
        </mxCell>
        <mxCell id="z4m7dzDND1Zy9vnOMDJ4-163" value="" style="shape=parallelogram;perimeter=parallelogramPerimeter;whiteSpace=wrap;html=1;fixedSize=1;fillColor=#4299E1;size=20;" parent="1" vertex="1">
          <mxGeometry x="1140" y="460" width="40" height="60" as="geometry" />
        </mxCell>
        <mxCell id="z4m7dzDND1Zy9vnOMDJ4-164" value="" style="shape=parallelogram;perimeter=parallelogramPerimeter;whiteSpace=wrap;html=1;fixedSize=1;fillColor=default;size=20;" parent="1" vertex="1">
          <mxGeometry x="1160" y="460" width="40" height="60" as="geometry" />
        </mxCell>
        <mxCell id="z4m7dzDND1Zy9vnOMDJ4-165" value="" style="rounded=0;whiteSpace=wrap;html=1;fillColor=none;" parent="1" vertex="1">
          <mxGeometry x="1180" y="620" width="90" height="60" as="geometry" />
        </mxCell>
        <mxCell id="z4m7dzDND1Zy9vnOMDJ4-166" value="" style="rounded=0;whiteSpace=wrap;html=1;fillColor=none;dashed=1;" parent="1" vertex="1">
          <mxGeometry x="1180" y="300" width="90" height="60" as="geometry" />
        </mxCell>
        <mxCell id="z4m7dzDND1Zy9vnOMDJ4-167" value="" style="endArrow=classic;html=1;rounded=0;" parent="1" edge="1">
          <mxGeometry width="50" height="50" relative="1" as="geometry">
            <mxPoint x="1225" y="620" as="sourcePoint" />
            <mxPoint x="1225" y="360" as="targetPoint" />
          </mxGeometry>
        </mxCell>
        <mxCell id="z4m7dzDND1Zy9vnOMDJ4-168" value="" style="endArrow=classic;html=1;rounded=0;" parent="1" edge="1">
          <mxGeometry width="50" height="50" relative="1" as="geometry">
            <mxPoint x="1270" y="329.71" as="sourcePoint" />
            <mxPoint x="1330" y="329.71" as="targetPoint" />
          </mxGeometry>
        </mxCell>
        <mxCell id="z4m7dzDND1Zy9vnOMDJ4-169" value="" style="rounded=0;whiteSpace=wrap;html=1;fillColor=none;" parent="1" vertex="1">
          <mxGeometry x="1330" y="300" width="40" height="60" as="geometry" />
        </mxCell>
        <mxCell id="z4m7dzDND1Zy9vnOMDJ4-170" value="" style="endArrow=classic;html=1;rounded=0;exitX=0.5;exitY=1;exitDx=0;exitDy=0;entryX=0.5;entryY=0;entryDx=0;entryDy=0;" parent="1" target="z4m7dzDND1Zy9vnOMDJ4-171" edge="1">
          <mxGeometry width="50" height="50" relative="1" as="geometry">
            <mxPoint x="1349.6599999999999" y="360" as="sourcePoint" />
            <mxPoint x="1350" y="600" as="targetPoint" />
          </mxGeometry>
        </mxCell>
        <mxCell id="z4m7dzDND1Zy9vnOMDJ4-171" value="" style="rounded=0;whiteSpace=wrap;html=1;fillColor=none;dashed=1;" parent="1" vertex="1">
          <mxGeometry x="1330" y="620" width="40" height="60" as="geometry" />
        </mxCell>
        <mxCell id="z4m7dzDND1Zy9vnOMDJ4-172" value="" style="endArrow=classic;html=1;rounded=0;exitX=1;exitY=0.5;exitDx=0;exitDy=0;" parent="1" edge="1">
          <mxGeometry width="50" height="50" relative="1" as="geometry">
            <mxPoint x="1370" y="329.58" as="sourcePoint" />
            <mxPoint x="1460" y="329.58" as="targetPoint" />
          </mxGeometry>
        </mxCell>
        <mxCell id="CVVJZ549YovdGznMH3PS-1" value="" style="endArrow=classic;startArrow=classic;html=1;rounded=0;" parent="1" edge="1">
          <mxGeometry width="50" height="50" relative="1" as="geometry">
            <mxPoint x="440" y="540" as="sourcePoint" />
            <mxPoint x="500" y="540" as="targetPoint" />
          </mxGeometry>
        </mxCell>
        <mxCell id="CVVJZ549YovdGznMH3PS-2" value="" style="endArrow=classic;startArrow=classic;html=1;rounded=0;" parent="1" edge="1">
          <mxGeometry width="50" height="50" relative="1" as="geometry">
            <mxPoint x="440" y="440" as="sourcePoint" />
            <mxPoint x="500" y="440" as="targetPoint" />
          </mxGeometry>
        </mxCell>
        <mxCell id="CVVJZ549YovdGznMH3PS-3" value="" style="endArrow=classic;startArrow=classic;html=1;rounded=0;" parent="1" edge="1">
          <mxGeometry width="50" height="50" relative="1" as="geometry">
            <mxPoint x="440" y="700" as="sourcePoint" />
            <mxPoint x="580" y="700" as="targetPoint" />
          </mxGeometry>
        </mxCell>
        <mxCell id="CVVJZ549YovdGznMH3PS-4" value="" style="endArrow=classic;startArrow=classic;html=1;rounded=0;" parent="1" edge="1">
          <mxGeometry width="50" height="50" relative="1" as="geometry">
            <mxPoint x="440" y="600" as="sourcePoint" />
            <mxPoint x="580" y="600" as="targetPoint" />
          </mxGeometry>
        </mxCell>
        <mxCell id="CVVJZ549YovdGznMH3PS-5" value="" style="endArrow=classic;startArrow=classic;html=1;rounded=0;" parent="1" edge="1">
          <mxGeometry width="50" height="50" relative="1" as="geometry">
            <mxPoint x="440" y="760" as="sourcePoint" />
            <mxPoint x="560" y="760" as="targetPoint" />
          </mxGeometry>
        </mxCell>
        <mxCell id="CVVJZ549YovdGznMH3PS-6" value="" style="endArrow=classic;startArrow=classic;html=1;rounded=0;" parent="1" edge="1">
          <mxGeometry width="50" height="50" relative="1" as="geometry">
            <mxPoint x="440" y="860" as="sourcePoint" />
            <mxPoint x="560" y="860" as="targetPoint" />
          </mxGeometry>
        </mxCell>
        <mxCell id="CVVJZ549YovdGznMH3PS-7" value="" style="endArrow=classic;startArrow=classic;html=1;rounded=0;" parent="1" edge="1">
          <mxGeometry width="50" height="50" relative="1" as="geometry">
            <mxPoint x="780" y="440" as="sourcePoint" />
            <mxPoint x="920" y="440" as="targetPoint" />
          </mxGeometry>
        </mxCell>
        <mxCell id="CVVJZ549YovdGznMH3PS-8" value="" style="endArrow=classic;startArrow=classic;html=1;rounded=0;" parent="1" edge="1">
          <mxGeometry width="50" height="50" relative="1" as="geometry">
            <mxPoint x="780" y="600" as="sourcePoint" />
            <mxPoint x="880" y="600" as="targetPoint" />
          </mxGeometry>
        </mxCell>
        <mxCell id="CVVJZ549YovdGznMH3PS-9" value="" style="endArrow=classic;startArrow=classic;html=1;rounded=0;" parent="1" edge="1">
          <mxGeometry width="50" height="50" relative="1" as="geometry">
            <mxPoint x="780" y="760" as="sourcePoint" />
            <mxPoint x="860" y="760" as="targetPoint" />
          </mxGeometry>
        </mxCell>
        <mxCell id="CVVJZ549YovdGznMH3PS-10" value="" style="endArrow=classic;startArrow=classic;html=1;rounded=0;" parent="1" edge="1">
          <mxGeometry width="50" height="50" relative="1" as="geometry">
            <mxPoint x="1140" y="440" as="sourcePoint" />
            <mxPoint x="1200" y="440" as="targetPoint" />
          </mxGeometry>
        </mxCell>
        <mxCell id="CVVJZ549YovdGznMH3PS-11" value="" style="endArrow=classic;startArrow=classic;html=1;rounded=0;" parent="1" edge="1">
          <mxGeometry width="50" height="50" relative="1" as="geometry">
            <mxPoint x="1140" y="600" as="sourcePoint" />
            <mxPoint x="1180" y="600" as="targetPoint" />
          </mxGeometry>
        </mxCell>
        <mxCell id="CVVJZ549YovdGznMH3PS-12" value="" style="endArrow=classic;startArrow=classic;html=1;rounded=0;" parent="1" edge="1">
          <mxGeometry width="50" height="50" relative="1" as="geometry">
            <mxPoint x="1140" y="760" as="sourcePoint" />
            <mxPoint x="1280" y="760" as="targetPoint" />
          </mxGeometry>
        </mxCell>
        <mxCell id="nExt7kv5y88nPhJqM-5s-1" value="" style="rounded=0;whiteSpace=wrap;html=1;fillColor=none;" parent="1" vertex="1">
          <mxGeometry x="650" y="460" width="40" height="60" as="geometry" />
        </mxCell>
        <mxCell id="nExt7kv5y88nPhJqM-5s-2" value="" style="rounded=0;whiteSpace=wrap;html=1;fillColor=none;" parent="1" vertex="1">
          <mxGeometry x="500" y="300" width="90" height="60" as="geometry" />
        </mxCell>
        <mxCell id="nExt7kv5y88nPhJqM-5s-5" value="" style="rounded=0;whiteSpace=wrap;html=1;fillColor=none;" parent="1" vertex="1">
          <mxGeometry x="860" y="300" width="90" height="60" as="geometry" />
        </mxCell>
        <mxCell id="nExt7kv5y88nPhJqM-5s-6" value="" style="rounded=0;whiteSpace=wrap;html=1;fillColor=none;" parent="1" vertex="1">
          <mxGeometry x="1010" y="780" width="40" height="60" as="geometry" />
        </mxCell>
        <mxCell id="nExt7kv5y88nPhJqM-5s-8" value="" style="rounded=0;whiteSpace=wrap;html=1;fillColor=none;" parent="1" vertex="1">
          <mxGeometry x="1180" y="300" width="90" height="60" as="geometry" />
        </mxCell>
        <mxCell id="nExt7kv5y88nPhJqM-5s-9" value="" style="rounded=0;whiteSpace=wrap;html=1;fillColor=none;" parent="1" vertex="1">
          <mxGeometry x="1330" y="620" width="40" height="60" as="geometry" />
        </mxCell>
      </root>
    </mxGraphModel>
  </diagram>
</mxfile>
